<svg width="37" height="39" viewBox="0 0 37 39" fill="none" xmlns="http://www.w3.org/2000/svg">
<path opacity="0.5" d="M37 19C37 29.2176 28.7176 37.5 18.5 37.5C8.28245 37.5 0 29.2176 0 19C0 8.78245 8.28245 0.5 18.5 0.5C28.7176 0.5 37 8.78245 37 19Z" fill="#E5E5E5"/>
<path d="M17.5936 6.26164L2.59375 12.4688V14.0625C2.59375 14.3443 2.70569 14.6146 2.90495 14.8138C3.10421 15.0131 3.37446 15.125 3.65625 15.125H32.3438C32.6255 15.125 32.8958 15.0131 33.0951 14.8138C33.2943 14.6146 33.4062 14.3443 33.4062 14.0625V12.4688L18.4064 6.26164C18.1461 6.15432 17.8539 6.15432 17.5936 6.26164Z" fill="#5D8AF9"/>
<path d="M5.25 17.7812H8.4375V31.5938H5.25V17.7812ZM30.75 31.5938H27.5625V17.7812H30.75V31.5938Z" fill="#B9CDFF"/>
<path d="M32.3438 34.25H3.65625C3.06945 34.25 2.59375 34.7257 2.59375 35.3125V35.8438C2.59375 36.4306 3.06945 36.9062 3.65625 36.9062H32.3438C32.9306 36.9062 33.4062 36.4306 33.4062 35.8438V35.3125C33.4062 34.7257 32.9306 34.25 32.3438 34.25Z" fill="#B9CDFF"/>
<path d="M2.59375 12.4688H33.4062V14.0625C33.4062 14.3443 33.2943 14.6145 33.0951 14.8138C32.8958 15.0131 32.6255 15.125 32.3438 15.125H3.65625C3.37446 15.125 3.10421 15.0131 2.90495 14.8138C2.70569 14.6145 2.59375 14.3443 2.59375 14.0625V12.4688Z" fill="#B9CDFF"/>
<path d="M24.027 26.098C24.027 22.7697 19.7951 17.25 18 17.25C16.2049 17.25 11.973 22.7697 11.973 26.098C11.973 27.6964 12.6079 29.2294 13.7382 30.3597C14.8685 31.49 16.4015 32.125 18 32.125C19.5985 32.125 21.1315 31.49 22.2617 30.3597C23.392 29.2294 24.027 27.6964 24.027 26.098Z" fill="#E11110"/>
<path d="M19.8971 24.0803H19.1385V23.3217C19.1385 23.1203 19.0585 22.9272 18.9161 22.7849C18.7737 22.6425 18.5807 22.5625 18.3793 22.5625H17.6207C17.4193 22.5625 17.2263 22.6425 17.0839 22.7849C16.9415 22.9272 16.8615 23.1203 16.8615 23.3217V24.0803H16.1029C15.9016 24.0803 15.7085 24.1603 15.5661 24.3026C15.4237 24.445 15.3438 24.6381 15.3438 24.8394V25.5981C15.3437 25.6978 15.3634 25.7965 15.4015 25.8886C15.4397 25.9807 15.4956 26.0644 15.5661 26.1349C15.6366 26.2054 15.7203 26.2613 15.8124 26.2994C15.9045 26.3376 16.0032 26.3572 16.1029 26.3572H16.8615V27.1158C16.8615 27.2155 16.8812 27.3143 16.9193 27.4064C16.9575 27.4985 17.0134 27.5822 17.0839 27.6526C17.1544 27.7231 17.2381 27.7791 17.3302 27.8172C17.4223 27.8554 17.521 27.875 17.6207 27.875H18.3793C18.479 27.875 18.5777 27.8554 18.6698 27.8172C18.7619 27.7791 18.8456 27.7231 18.9161 27.6526C18.9866 27.5822 19.0425 27.4985 19.0807 27.4064C19.1188 27.3143 19.1385 27.2155 19.1385 27.1158V26.3572H19.8971C19.9968 26.3572 20.0955 26.3376 20.1876 26.2994C20.2797 26.2613 20.3634 26.2054 20.4339 26.1349C20.5044 26.0644 20.5603 25.9807 20.5985 25.8886C20.6366 25.7965 20.6562 25.6978 20.6562 25.5981V24.8394C20.6562 24.6381 20.5763 24.445 20.4339 24.3026C20.2915 24.1603 20.0984 24.0803 19.8971 24.0803Z" fill="white"/>
<path d="M4.1875 15.125H9.5V16.7188C9.5 17.0005 9.38806 17.2708 9.1888 17.4701C8.98954 17.6693 8.71929 17.7812 8.4375 17.7812H5.25C4.96821 17.7812 4.69796 17.6693 4.4987 17.4701C4.29944 17.2708 4.1875 17.0005 4.1875 16.7188V15.125ZM5.25 31.5938H8.4375C8.71929 31.5938 8.98954 31.7057 9.1888 31.9049C9.38806 32.1042 9.5 32.3745 9.5 32.6562V34.25H4.1875V32.6562C4.1875 32.3745 4.29944 32.1042 4.4987 31.9049C4.69796 31.7057 4.96821 31.5938 5.25 31.5938ZM26.5 15.125H31.8125V16.7188C31.8125 17.0005 31.7006 17.2708 31.5013 17.4701C31.302 17.6693 31.0318 17.7812 30.75 17.7812H27.5625C27.2807 17.7812 27.0105 17.6693 26.8112 17.4701C26.6119 17.2708 26.5 17.0005 26.5 16.7188V15.125ZM27.5625 31.5938H30.75C31.0318 31.5938 31.302 31.7057 31.5013 31.9049C31.7006 32.1042 31.8125 32.3745 31.8125 32.6562V34.25H26.5V32.6562C26.5 32.3745 26.6119 32.1042 26.8112 31.9049C27.0105 31.7057 27.2807 31.5938 27.5625 31.5938Z" fill="#5D8AF9"/>
</svg>
