<svg width="25" height="32" viewBox="0 0 25 32" fill="none" xmlns="http://www.w3.org/2000/svg">
<g id="Group 237968">
<path id="Vector" d="M12.5033 0C12.3497 0.000263913 12.1978 0.0316636 12.0567 0.0923019C11.9156 0.15294 11.7882 0.241558 11.6823 0.3528C11.6823 0.3528 8.79348 3.34809 5.90441 7.22908C3.01534 11.1101 0 15.7731 0 19.8433C0 23.0619 1.1351 26.0742 3.29502 28.2706C5.45494 30.467 8.62184 31.8097 12.4945 31.8097C16.3671 31.8097 19.5428 30.467 21.7028 28.2706C23.8627 26.0742 25 23.0619 25 19.8433C25 15.7731 21.9758 11.1101 19.0867 7.22908C16.1976 3.34809 13.3177 0.3528 13.3177 0.3528C13.2125 0.242364 13.0863 0.154215 12.9464 0.0936037C12.8065 0.0329924 12.6558 0.00115919 12.5033 0Z" fill="white"/>
<g id="Group 237967">
<path id="Vector_2" d="M12.4763 14.77C12.1765 14.7791 11.8909 14.9852 11.682 15.3432C11.4731 15.7011 11.3578 16.1821 11.3612 16.681V24.2409C11.3612 24.7422 11.4809 25.2229 11.694 25.5773C11.907 25.9318 12.196 26.1309 12.4973 26.1309C12.7986 26.1309 13.0875 25.9318 13.3006 25.5773C13.5136 25.2229 13.6333 24.7422 13.6333 24.2409V16.681C13.635 16.428 13.6062 16.1771 13.5486 15.943C13.491 15.709 13.4057 15.4966 13.2978 15.3183C13.1899 15.1401 13.0616 14.9998 12.9205 14.9056C12.7794 14.8114 12.6283 14.7653 12.4763 14.77Z" fill="#E53B44"/>
<path id="Vector_3" d="M8.60126 19.3153C8.10287 19.3309 7.63514 19.4653 7.30095 19.6891C6.96675 19.9129 6.79347 20.2076 6.81922 20.5085C6.84497 20.8094 7.06763 21.0918 7.43824 21.2936C7.80885 21.4954 8.29704 21.6 8.79543 21.5845H16.2986C16.7971 21.5845 17.2751 21.465 17.6275 21.2522C17.9799 21.0394 18.1779 20.7508 18.1779 20.4499C18.1779 20.149 17.9799 19.8604 17.6275 19.6476C17.2751 19.4348 16.7971 19.3153 16.2986 19.3153H8.79543C8.73075 19.3133 8.66594 19.3133 8.60126 19.3153Z" fill="#E53B44"/>
</g>
</g>
</svg>
