<svg xmlns="http://www.w3.org/2000/svg" width="24.243" height="24.245" viewBox="0 0 24.243 24.245">
  <path id="Icon_simple-messenger" data-name="Icon simple-messenger" d="M0,11.757C0,5,5.292,0,12.12,0S24.241,5,24.241,11.757,18.948,23.514,12.12,23.514a13.228,13.228,0,0,1-3.5-.465.97.97,0,0,0-.646.051L5.555,24.161A.97.97,0,0,1,4.191,23.3l-.071-2.162a.98.98,0,0,0-.323-.687,11.5,11.5,0,0,1-3.8-8.7ZM8.4,9.545,4.848,15.2a.569.569,0,0,0,.828.758L9.5,13.06a.713.713,0,0,1,.879,0l2.828,2.121a1.823,1.823,0,0,0,2.626-.485L19.393,9.04a.57.57,0,0,0-.828-.758l-3.828,2.9a.7.7,0,0,1-.869,0L11.04,9.06A1.818,1.818,0,0,0,8.4,9.545Z" transform="translate(0.002)" fill="#272d3b"/>
</svg>
