<svg xmlns="http://www.w3.org/2000/svg" width="17.194" height="18.961" viewBox="0 0 17.194 18.961">
  <path id="Icon_simple-email" data-name="Icon simple-email" d="M18.852,8.751a9.779,9.779,0,0,1-.315,2.121,6.137,6.137,0,0,1-.825,1.863,4.351,4.351,0,0,1-1.4,1.323,3.946,3.946,0,0,1-2.041.5A2.959,2.959,0,0,1,12.8,14.2a2.528,2.528,0,0,1-1-1.023,3.162,3.162,0,0,1-2.675,1.344,2.72,2.72,0,0,1-2.335-1.256,4.111,4.111,0,0,1-.581-1.455,6.275,6.275,0,0,1-.076-1.9A8.817,8.817,0,0,1,6.71,7.588,6.319,6.319,0,0,1,7.779,5.807,4.521,4.521,0,0,1,9.248,4.672a4.1,4.1,0,0,1,1.787-.4,5.556,5.556,0,0,1,1.069.091,4.375,4.375,0,0,1,.829.249,4.485,4.485,0,0,1,.687.363c.21.135.421.275.63.417l-.519,5.972a1.985,1.985,0,0,0,.015.7.978.978,0,0,0,.213.431.768.768,0,0,0,.346.225,1.284,1.284,0,0,0,1.216-.239,2.591,2.591,0,0,0,.652-.829,5.342,5.342,0,0,0,.438-1.246A8.552,8.552,0,0,0,16.8,8.854a9.919,9.919,0,0,0-.244-2.9A5.765,5.765,0,0,0,15.486,3.71a4.985,4.985,0,0,0-1.924-1.446,6.984,6.984,0,0,0-2.8-.513,6.19,6.19,0,0,0-2.773.6A6.361,6.361,0,0,0,5.879,4.031,8.04,8.04,0,0,0,4.5,6.551a11.357,11.357,0,0,0-.581,3.14,10.441,10.441,0,0,0,.3,3.2,5.786,5.786,0,0,0,1.171,2.3A4.885,4.885,0,0,0,7.37,16.57a7.608,7.608,0,0,0,2.737.457,9.374,9.374,0,0,0,1.8-.193c.3-.059.577-.13.845-.209a6.358,6.358,0,0,0,.727-.261l.376,1.69a4.169,4.169,0,0,1-.814.4,7.835,7.835,0,0,1-.962.278,9.388,9.388,0,0,1-2.009.225,10.538,10.538,0,0,1-3.664-.59,6.743,6.743,0,0,1-2.671-1.756,7.374,7.374,0,0,1-1.6-2.9A12.367,12.367,0,0,1,1.68,9.691a12.275,12.275,0,0,1,.77-3.863A9.559,9.559,0,0,1,4.306,2.759,8.455,8.455,0,0,1,7.136.735,8.862,8.862,0,0,1,10.8,0a9.252,9.252,0,0,1,3.552.636,6.909,6.909,0,0,1,2.564,1.789A7.342,7.342,0,0,1,18.44,5.19,10.569,10.569,0,0,1,18.852,8.751ZM8.677,9.912a4.031,4.031,0,0,0,.209,2,1.072,1.072,0,0,0,1.031.675,1.139,1.139,0,0,0,.353-.065,1.259,1.259,0,0,0,.406-.244,2.169,2.169,0,0,0,.412-.5,3.819,3.819,0,0,0,.379-.841l.405-4.64a2.421,2.421,0,0,0-.63-.083,2.179,2.179,0,0,0-1.049.241,2.076,2.076,0,0,0-.743.706,4.147,4.147,0,0,0-.493,1.161,9.85,9.85,0,0,0-.28,1.588Z" transform="translate(-1.67)" fill="#272d3b" opacity="0.63"/>
</svg>
