<svg xmlns="http://www.w3.org/2000/svg" width="25.412" height="30.738" viewBox="0 0 25.412 30.738">
  <g id="Group_3103" data-name="Group 3103" transform="translate(24869.5 24222.594)" opacity="0.3">
    <path id="Icon_material-verified-user" data-name="Icon material-verified-user" d="M16.206,1.5,4.5,6.7v7.8c0,7.219,4.995,13.969,11.706,15.608,6.711-1.639,11.706-8.389,11.706-15.608V6.7Zm0,13.588v-.713l-.608.132v.581h0l.074-.581.534.581h.661l-.742-.385-.527-.2h1.269L15.6,13.824l-.27.988.878.275Z" transform="translate(-24873 -24223)" fill="none" stroke="#272d3b" stroke-width="2"/>
    <path id="Icon_ionic-ios-star" data-name="Icon ionic-ios-star" d="M14.7,7.536h-4.25L9.161,3.681a.468.468,0,0,0-.878,0L6.991,7.536H2.712A.464.464,0,0,0,2.25,8a.34.34,0,0,0,.009.078.444.444,0,0,0,.194.326l3.493,2.462L4.6,14.762a.464.464,0,0,0,.159.52.447.447,0,0,0,.26.113.566.566,0,0,0,.289-.1l3.409-2.43,3.409,2.43a.541.541,0,0,0,.289.1.415.415,0,0,0,.257-.113.458.458,0,0,0,.159-.52l-1.341-3.9L14.96,8.379l.084-.072a.442.442,0,0,0-.341-.771Z" transform="translate(-24865.75 -24216.875)" fill="#fff" stroke="#272d3b" stroke-width="2"/>
  </g>
</svg>
