<svg id="settings-horizontal_outline" xmlns="http://www.w3.org/2000/svg" width="21.975" height="21.975" viewBox="0 0 21.975 21.975">
  <g id="Group_3169" data-name="Group 3169">
    <path id="Path_11491" data-name="Path 11491" d="M.824,2.472a.824.824,0,0,0,0,1.648H1.2a3.3,3.3,0,0,0,6.385,0H21.151a.824.824,0,1,0,0-1.648H7.587a3.3,3.3,0,0,0-6.385,0ZM6.043,3.3A1.648,1.648,0,1,1,4.4,1.648,1.648,1.648,0,0,1,6.043,3.3Z" fill="#fff" fill-rule="evenodd"/>
    <path id="Path_11492" data-name="Path 11492" d="M.824,83.112a.824.824,0,0,0,0,1.648H14.388a3.3,3.3,0,0,0,6.385,0h.379a.824.824,0,1,0,0-1.648h-.379a3.3,3.3,0,0,0-6.385,0Zm18.4.824a1.648,1.648,0,1,1-1.648-1.648A1.648,1.648,0,0,1,19.228,83.936Z" transform="translate(0 -65.257)" fill="#fff" fill-rule="evenodd"/>
    <path id="Path_11493" data-name="Path 11493" d="M0,43.616a.824.824,0,0,1,.824-.824H7.8a3.3,3.3,0,0,1,6.385,0h6.971a.824.824,0,0,1,0,1.648H14.18a3.3,3.3,0,0,1-6.385,0H.824A.824.824,0,0,1,0,43.616Zm10.988,1.648a1.648,1.648,0,1,0-1.648-1.648A1.648,1.648,0,0,0,10.988,45.264Z" transform="translate(0 -32.629)" fill="#fff" fill-rule="evenodd"/>
  </g>
</svg>
