<svg width="40" height="40" viewBox="0 0 40 40" fill="none" xmlns="http://www.w3.org/2000/svg">
<g id="Group 239153">
<path id="Vector" d="M20.3279 11.1476L19.9575 11.5969C19.7053 11.9011 13.7705 19.0876 13.7705 22.5768C13.7705 24.3159 14.4614 25.9838 15.6911 27.2135C16.9208 28.4433 18.5887 29.1341 20.3279 29.1341C22.067 29.1341 23.7349 28.4433 24.9646 27.2135C26.1944 25.9838 26.8852 24.3159 26.8852 22.5768C26.8852 19.0876 20.9511 11.9011 20.6982 11.5969L20.3279 11.1476ZM21.4768 25.7341C21.4645 25.8993 21.3903 26.0536 21.269 26.1664C21.1477 26.2791 20.9883 26.3418 20.8228 26.342H20.7733C17.8682 26.127 16.5723 23.5178 16.2931 22.1698C16.2677 22.0037 16.307 21.8343 16.4028 21.6962C16.4986 21.5582 16.6437 21.4622 16.8081 21.4279C16.9726 21.3936 17.144 21.4237 17.287 21.5119C17.4299 21.6001 17.5337 21.7398 17.5768 21.9022C17.6063 22.0376 18.2411 24.8374 20.869 25.0319C20.955 25.038 21.039 25.061 21.1162 25.0997C21.1933 25.1383 21.2621 25.1917 21.3186 25.2569C21.375 25.3222 21.4181 25.3979 21.4452 25.4798C21.4724 25.5617 21.4831 25.6481 21.4768 25.7341Z" fill="white"/>
<path id="Vector_2" d="M38.1587 19.4106C37.8515 9.88684 30.1336 2.23969 20.5894 2.04401V0H19.4106V2.05815C10.0589 2.47073 2.56817 10.0306 2.26562 19.4106H0V20.5894H2.26562C2.56817 29.9694 10.0589 37.5293 19.4106 37.9418V40H20.5894V37.9568C30.1336 37.7619 37.8515 30.1139 38.1587 20.5894H40V19.4106H38.1587ZM20.5894 36.0707V33.7658H19.4106V36.0582C15.3923 35.8578 11.5952 34.1577 8.76942 31.2937C5.94368 28.4297 4.29481 24.6101 4.14853 20.5894H6.23418V19.4106H4.14853C4.44872 11.068 11.0971 4.35049 19.4106 3.94106V6.23418H20.5894V3.92534C29.0963 4.11866 35.9788 10.9242 36.2845 19.4067H33.7697V20.5855H36.2845C35.9788 29.0758 29.0963 35.8806 20.5894 36.0739V36.0707Z" fill="white"/>
</g>
</svg>
