<svg xmlns="http://www.w3.org/2000/svg" width="29.731" height="27.781" viewBox="0 0 29.731 27.781">
  <path id="Icon_awesome-hands-helping" data-name="Icon awesome-hands-helping" d="M20.995,9.663h-6.54v2.818a3.4,3.4,0,0,1-3.1,3.623,3.4,3.4,0,0,1-3.1-3.623V6.362L5.468,8.324A3.357,3.357,0,0,0,4.13,11.082v2.38L.688,15.788a1.763,1.763,0,0,0-.5,2.2l3.442,6.975a1.274,1.274,0,0,0,1.88.589l4.449-3h5.877a3.018,3.018,0,0,0,2.753-3.221h.688a1.506,1.506,0,0,0,1.377-1.61V14.494h.344a1.128,1.128,0,0,0,1.033-1.208V10.871A1.128,1.128,0,0,0,20.995,9.663Zm6.355-1.882L23.907.806a1.274,1.274,0,0,0-1.88-.589l-4.449,3h-4.4a2.485,2.485,0,0,0-1.458.488L10.282,4.761a1.677,1.677,0,0,0-.645,1.364v6.356a1.884,1.884,0,0,0,1.721,2.013,1.884,1.884,0,0,0,1.721-2.013V8.053h7.916A2.64,2.64,0,0,1,23.4,10.871v1.434L26.846,9.98a1.769,1.769,0,0,0,.5-2.2Z" transform="translate(1.102 1.007)" fill="#fcfcfc" stroke="#272d3b" stroke-width="2"/>
</svg>
