<svg width="22" height="23" viewBox="0 0 22 23" fill="none" xmlns="http://www.w3.org/2000/svg">
<path id="Vector" d="M9.81444 0.435756C10.1458 0.154403 10.5658 0 11 0C11.4342 0 11.8542 0.154403 12.1856 0.435756L21.3522 8.23458C21.5552 8.40714 21.7183 8.62195 21.8302 8.86408C21.942 9.10622 22 9.36987 22 9.63672V21.1615C22 21.6491 21.8068 22.1167 21.463 22.4615C21.1192 22.8063 20.6529 23 20.1667 23H13.1389C12.8958 23 12.6626 22.9032 12.4907 22.7308C12.3188 22.5584 12.2222 22.3246 12.2222 22.0808V14.4204H9.77778V22.0808C9.77778 22.3246 9.6812 22.5584 9.50929 22.7308C9.33738 22.9032 9.10423 23 8.86111 23H1.83333C1.3471 23 0.880788 22.8063 0.536971 22.4615C0.193154 22.1167 0 21.6491 0 21.1615V9.63672C0 9.09743 0.237111 8.58389 0.647778 8.23458L9.81444 0.435756ZM11 1.8379L1.83333 9.63672V21.1615H7.94444V13.5012C7.94444 13.2574 8.04102 13.0236 8.21293 12.8512C8.38484 12.6788 8.618 12.582 8.86111 12.582H13.1389C13.382 12.582 13.6152 12.6788 13.7871 12.8512C13.959 13.0236 14.0556 13.2574 14.0556 13.5012V21.1615H20.1667V9.63672L11 1.8379Z" fill="#E53B44"/>
</svg>
