<svg width="37" height="37" viewBox="0 0 37 37" fill="none" xmlns="http://www.w3.org/2000/svg">
<path opacity="0.5" d="M37 18.5C37 28.7176 28.7176 37 18.5 37C8.28245 37 0 28.7176 0 18.5C0 8.28245 8.28245 0 18.5 0C28.7176 0 37 8.28245 37 18.5Z" fill="#E5E5E5"/>
<g clip-path="url(#clip0_8_295)">
<mask id="mask0_8_295" style="mask-type:luminance" maskUnits="userSpaceOnUse" x="1" y="4" width="33" height="34">
<path d="M1 4.97296H34V37.973H1V4.97296Z" fill="white"/>
</mask>
<g mask="url(#mask0_8_295)">
<path d="M22.7105 14.5256C22.7105 14.9862 22.5275 15.428 22.2018 15.7537C21.8761 16.0795 21.4343 16.2625 20.9737 16.2625H14.0263C13.5657 16.2625 13.1239 16.0795 12.7982 15.7537C12.4724 15.428 12.2895 14.9862 12.2895 14.5256V7.57824C12.2895 7.1176 12.4724 6.67583 12.7982 6.35011C13.1239 6.02439 13.5657 5.8414 14.0263 5.8414H20.9737C21.4343 5.8414 21.8761 6.02439 22.2018 6.35011C22.5275 6.67583 22.7105 7.1176 22.7105 7.57824V14.5256ZM1.86841 17.9993V35.3677C1.86841 35.8284 2.0514 36.2701 2.37712 36.5958C2.70284 36.9216 3.14461 37.1046 3.60525 37.1046H31.3947C31.8554 37.1046 32.2971 36.9216 32.6229 36.5958C32.9486 36.2701 33.1316 35.8284 33.1316 35.3677V17.9993H1.86841Z" fill="white"/>
<path d="M17.5 16.2624H3.60525C3.14461 16.2624 2.70284 16.4454 2.37712 16.7711C2.0514 17.0969 1.86841 17.5386 1.86841 17.9993H19.2368C19.2368 17.5386 19.0538 17.0969 18.7281 16.7711C18.4024 16.4454 17.9606 16.2624 17.5 16.2624Z" fill="#808285"/>
<path d="M31.3947 16.2624H17.5C17.0394 16.2624 16.5976 16.4454 16.2719 16.7711C15.9461 17.0969 15.7632 17.5386 15.7632 17.9993H33.1316C33.1316 17.5386 32.9486 17.0969 32.6229 16.7711C32.2971 16.4454 31.8554 16.2624 31.3947 16.2624Z" fill="#808285"/>
<path d="M31.3947 28.4203H3.60526V24.9466H31.3947V28.4203ZM31.3947 23.2098H3.60526V19.7361H31.3947V23.2098ZM31.3947 33.6309H3.60526V30.1572H31.3947V33.6309Z" fill="#5D8AF9"/>
<path d="M26.1842 37.1046H8.81577V16.2624H26.1842V37.1046Z" fill="white"/>
<path d="M24.4473 26.6835H10.5526V23.2098H24.4473V26.6835ZM24.4473 21.473H10.5526V17.9993H24.4473V21.473ZM24.4473 31.894H10.5526V28.4204H24.4473V31.894Z" fill="#5D8AF9"/>
<path d="M21.8421 37.1046H13.1579V33.6309H21.8421V37.1046Z" fill="#3B88C3"/>
<path d="M20.9737 9.31506H18.3684V6.7098H16.6316V9.31506H14.0263V11.0519H16.6316V13.6572H18.3684V11.0519H20.9737V9.31506Z" fill="#E53B44"/>
<path d="M24.4473 14.5256H10.5526C10.092 14.5256 9.6502 14.7086 9.32448 15.0343C8.99875 15.36 8.81577 15.8018 8.81577 16.2625H26.1842C26.1842 15.8018 26.0012 15.36 25.6755 15.0343C25.3498 14.7086 24.908 14.5256 24.4473 14.5256Z" fill="#808285"/>
</g>
</g>
<defs>
<clipPath id="clip0_8_295">
<path d="M1 1H36V20.9459C36 29.7825 28.8366 36.9459 20 36.9459H17C8.16344 36.9459 1 29.7825 1 20.9459V1Z" fill="white"/>
</clipPath>
</defs>
</svg>
