<svg xmlns="http://www.w3.org/2000/svg" width="37.514" height="35.946" viewBox="0 0 37.514 35.946">
  <g id="Actions" transform="translate(1 1.012)">
    <path id="Path_11426" data-name="Path 11426" d="M27.843,22.324,24.4,25.772,33.831,35.2a1.465,1.465,0,0,0,2.071,0l1.375-1.375a1.463,1.463,0,0,0,0-2.071ZM7.576,20.384l1.559-1.559c.572-.572-.023-1.383-.023-1.383l1.6-1.544a1.466,1.466,0,0,0,2.058-.013l.87-.871,1.677,1.677,3.446-3.446-1.677-1.676L17.655,11a1.465,1.465,0,0,0,0-2.071l-.688-.688s2.023-2.271,2.448-2.7C21.2,3.762,25.16,4.914,25.343,4s-8.786-4.308-13.7.6L6.536,9.708a1.465,1.465,0,0,0,0,2.075l.345.333L5.367,13.7a.974.974,0,0,0-1.4-.04l-1.56,1.559a.731.731,0,0,0,0,1.035L6.54,20.384a.731.731,0,0,0,1.036,0Zm4.705,11.8-5.26,1.893L8.9,28.816ZM31.822,3.878,7.794,27.906a1.218,1.218,0,0,0-.284.444l-2.28,6.3a.9.9,0,0,0,1.183,1.192l6.328-2.255a1.208,1.208,0,0,0,.45-.287L37.216,9.248A1.028,1.028,0,0,0,37.307,7.8L33.264,3.777A1.03,1.03,0,0,0,31.822,3.878Z" transform="translate(-2.193 -2.005)" fill="none" stroke="#fff" stroke-width="2"/>
  </g>
</svg>
