<svg xmlns="http://www.w3.org/2000/svg" width="51.087" height="37.941" viewBox="0 0 51.087 37.941">
  <g id="Component_10_1" data-name="Component 10 – 1" transform="translate(1 1)">
    <text id="_50_" data-name="50%" transform="translate(7.565 11.323) rotate(-7)" fill="#fff" font-size="11" font-family="SegoeUI, Segoe UI"><tspan x="0" y="12">50%</tspan></text>
    <path id="Path_11421" data-name="Path 11421" d="M35.5,17.544a3.5,3.5,0,0,1,1.115,2.573A3.232,3.232,0,0,1,35.5,22.607L22.722,35.262a3.765,3.765,0,0,1-2.615,1.012,3.467,3.467,0,0,1-2.529-1.012L1.115,19.063A3.45,3.45,0,0,1,0,16.532V3.877A3.377,3.377,0,0,1,1.072,1.388,3.588,3.588,0,0,1,3.687.333H16.462a3.52,3.52,0,0,1,2.572,1.012ZM6.388,9.276A2.788,2.788,0,0,0,8.36,8.517a2.487,2.487,0,0,0,.815-1.9,2.622,2.622,0,0,0-.815-1.94,2.708,2.708,0,0,0-1.972-.8,2.567,2.567,0,0,0-1.929.8,2.7,2.7,0,0,0-.772,1.94,2.554,2.554,0,0,0,.772,1.9A2.64,2.64,0,0,0,6.388,9.276Z" transform="translate(0 -0.333)" fill="none" stroke="#fff" stroke-width="2"/>
  </g>
</svg>
