<svg xmlns="http://www.w3.org/2000/svg" width="17.407" height="24.054" viewBox="0 0 17.407 24.054">
  <g id="map-marker-solid" transform="translate(0)">
    <path id="Path_27" data-name="Path 27" d="M16.993,2.667a8.707,8.707,0,0,0-8.7,8.663c0,3.449,1.935,6.337,3.353,8.441l.258.384a73.566,73.566,0,0,0,4.535,5.908L17,26.72l.561-.657A73.72,73.72,0,0,0,22.1,20.155l.258-.391c1.411-2.1,3.346-4.985,3.346-8.434A8.707,8.707,0,0,0,16.993,2.667Zm0,12.555a4.845,4.845,0,1,1,4.845-4.845A4.845,4.845,0,0,1,16.993,15.222Z" transform="translate(-8.293 -2.667)" fill="#003f62"/>
    <circle id="Ellipse_12" data-name="Ellipse 12" cx="2.755" cy="2.755" r="2.755" transform="translate(5.945 4.955)" fill="#003f62"/>
  </g>
</svg>
