<svg xmlns="http://www.w3.org/2000/svg" width="21.938" height="21.938" viewBox="0 0 21.938 21.938">
  <path id="Icon_material-language" data-name="Icon material-language" d="M13.958,3a10.969,10.969,0,1,0,10.98,10.969A10.963,10.963,0,0,0,13.958,3Zm7.6,6.581H18.323a17.165,17.165,0,0,0-1.514-3.9A8.808,8.808,0,0,1,21.559,9.581Zm-7.59-4.344a15.451,15.451,0,0,1,2.1,4.344h-4.19A15.451,15.451,0,0,1,13.969,5.238ZM5.479,16.163a8.58,8.58,0,0,1,0-4.388H9.186a18.115,18.115,0,0,0-.154,2.194,18.115,18.115,0,0,0,.154,2.194Zm.9,2.194H9.614a17.165,17.165,0,0,0,1.514,3.9A8.761,8.761,0,0,1,6.378,18.356ZM9.614,9.581H6.378a8.761,8.761,0,0,1,4.749-3.9A17.165,17.165,0,0,0,9.614,9.581ZM13.969,22.7a15.451,15.451,0,0,1-2.1-4.344h4.19A15.451,15.451,0,0,1,13.969,22.7Zm2.567-6.537H11.4a16.138,16.138,0,0,1-.175-2.194,16,16,0,0,1,.175-2.194h5.133a16,16,0,0,1,.176,2.194A16.138,16.138,0,0,1,16.535,16.163Zm.274,6.1a17.165,17.165,0,0,0,1.514-3.9h3.236a8.808,8.808,0,0,1-4.749,3.9Zm1.941-6.1a18.115,18.115,0,0,0,.154-2.194,18.115,18.115,0,0,0-.154-2.194h3.707a8.58,8.58,0,0,1,0,4.388Z" transform="translate(-3 -3)"/>
</svg>
