<svg width="19" height="19" viewBox="0 0 19 19" fill="none" xmlns="http://www.w3.org/2000/svg">
<g id="system-uicons:location">
<g id="Group">
<path id="Vector" fill-rule="evenodd" clip-rule="evenodd" d="M9.50001 16.7743L10.0709 16.1311C10.7187 15.3892 11.3014 14.6852 11.8198 14.0157L12.2478 13.4512C14.0347 11.0436 14.9286 9.13272 14.9286 7.72039C14.9286 4.70572 12.4984 2.26196 9.50001 2.26196C6.50163 2.26196 4.07144 4.70572 4.07144 7.72039C4.07144 9.13272 4.96535 11.0436 6.75225 13.4512L7.1802 14.0157C7.91979 14.9634 8.69357 15.8829 9.50001 16.7743Z" stroke="#1E1E1E" stroke-linecap="round" stroke-linejoin="round"/>
<path id="Vector_2" d="M9.5 9.95252C10.7492 9.95252 11.7619 8.93983 11.7619 7.69062C11.7619 6.4414 10.7492 5.42871 9.5 5.42871C8.25079 5.42871 7.2381 6.4414 7.2381 7.69062C7.2381 8.93983 8.25079 9.95252 9.5 9.95252Z" stroke="#1E1E1E" stroke-linecap="round" stroke-linejoin="round"/>
</g>
</g>
</svg>
