<svg xmlns="http://www.w3.org/2000/svg" width="20.463" height="24.183" viewBox="0 0 20.463 24.183">
  <path id="Icon_ionic-md-notifications-outline" data-name="Icon ionic-md-notifications-outline" d="M15.915,7.588a8.4,8.4,0,0,1,1.39.26,5.924,5.924,0,0,1,4.516,5.8v7.418l.542.544.453.455H8.9l.453-.455.542-.544V13.653a5.924,5.924,0,0,1,4.516-5.8,10.291,10.291,0,0,1,1.39-.26m.058-4.213a1.777,1.777,0,0,0-1.806,1.814v.846a7.837,7.837,0,0,0-6.019,7.618V20.3L5.625,22.722v1.209H26.088V22.722L23.681,20.3v-6.65a7.837,7.837,0,0,0-6.019-7.618V5.189a1.777,1.777,0,0,0-1.806-1.814ZM18.264,25.14H13.449a2.407,2.407,0,1,0,4.815,0Z" transform="translate(-5.625 -3.375)" fill="#272d3b"/>
</svg>
