<svg width="37" height="37" viewBox="0 0 37 37" fill="none" xmlns="http://www.w3.org/2000/svg">
<path opacity="0.5" d="M37 18.5C37 28.7176 28.7176 37 18.5 37C8.28245 37 0 28.7176 0 18.5C0 8.28245 8.28245 0 18.5 0C28.7176 0 37 8.28245 37 18.5Z" fill="#E5E5E5"/>
<g clip-path="url(#clip0_8_271)">
<path d="M32.3627 26.6729C32.2752 26.6729 32.1914 26.6381 32.1295 26.5763C32.0677 26.5145 32.033 26.4306 32.033 26.3432V22.3871C32.033 22.2997 32.0677 22.2158 32.1295 22.154C32.1914 22.0922 32.2752 22.0574 32.3627 22.0574C32.4501 22.0574 32.5339 22.0922 32.5958 22.154C32.6576 22.2158 32.6923 22.2997 32.6923 22.3871V26.3432C32.6923 26.4306 32.6576 26.5145 32.5958 26.5763C32.5339 26.6381 32.4501 26.6729 32.3627 26.6729Z" fill="#5D8AF9"/>
<path d="M10.9341 30.2994H14.8901V31.6181C14.8901 31.7929 14.8206 31.9606 14.697 32.0843C14.5733 32.208 14.4056 32.2774 14.2307 32.2774H11.5934C11.4185 32.2774 11.2508 32.208 11.1272 32.0843C11.0035 31.9606 10.9341 31.7929 10.9341 31.6181V30.2994Z" fill="#E53B44"/>
<path d="M7.30777 30.2994H9.28579V31.6181C9.28579 31.7929 9.21632 31.9606 9.09267 32.0843C8.96902 32.208 8.80132 32.2774 8.62645 32.2774H7.96711C7.79224 32.2774 7.62454 32.208 7.50089 32.0843C7.37724 31.9606 7.30777 31.7929 7.30777 31.6181V30.2994Z" fill="white"/>
<path d="M16.5384 30.2994H18.5164V31.6181C18.5164 31.7929 18.447 31.9606 18.3233 32.0843C18.1997 32.208 18.032 32.2774 17.8571 32.2774H17.1978C17.0229 32.2774 16.8552 32.208 16.7315 32.0843C16.6079 31.9606 16.5384 31.7929 16.5384 31.6181V30.2994Z" fill="#808285"/>
<path d="M18.8461 11.1781H6.97802C5.88559 11.1781 5 12.0637 5 13.1561V28.3211C5 29.4136 5.88559 30.2992 6.97802 30.2992H18.8461C19.9386 30.2992 20.8241 29.4136 20.8241 28.3211V13.1561C20.8241 12.0637 19.9386 11.1781 18.8461 11.1781Z" fill="white"/>
<path d="M18.8461 11.1782H16.8681C17.3927 11.1782 17.8958 11.3866 18.2668 11.7575C18.6377 12.1285 18.8461 12.6316 18.8461 13.1562V28.3212C18.8461 28.8458 18.6377 29.3489 18.2668 29.7199C17.8958 30.0908 17.3927 30.2992 16.8681 30.2992H18.8461C19.3707 30.2992 19.8739 30.0908 20.2448 29.7199C20.6158 29.3489 20.8242 28.8458 20.8242 28.3212V13.1562C20.8242 12.6316 20.6158 12.1285 20.2448 11.7575C19.8739 11.3866 19.3707 11.1782 18.8461 11.1782ZM9.28572 8.87048H16.5385C16.8882 8.87048 17.2236 9.00942 17.4709 9.25672C17.7182 9.50402 17.8571 9.83944 17.8571 10.1892V11.1782H7.96704V10.1892C7.96704 9.83944 8.10597 9.50402 8.35327 9.25672C8.60057 9.00942 8.93598 8.87048 9.28572 8.87048Z" fill="#D4D4D4"/>
<path d="M16.5385 8.87048H14.9297C15.2689 8.87048 15.5943 9.00525 15.8342 9.24513C16.074 9.48502 16.2088 9.81037 16.2088 10.1496V11.1782H17.8572V10.1892C17.8572 9.83944 17.7182 9.50402 17.4709 9.25672C17.2236 9.00942 16.8882 8.87048 16.5385 8.87048Z" fill="#808285"/>
<path d="M12.9122 7.22223C13.1745 7.22223 13.426 7.32643 13.6115 7.51191C13.797 7.69738 13.9012 7.94894 13.9012 8.21125V8.8706H11.9232V8.21125C11.9232 7.94894 12.0274 7.69738 12.2128 7.51191C12.3983 7.32643 12.6499 7.22223 12.9122 7.22223Z" fill="white"/>
<path d="M18.8461 17.9727C17.6106 18.2244 16.4338 18.7076 15.378 19.3969C15.2 19.5112 15.0253 19.6332 14.8538 19.7628L13.1132 21.0683C11.3882 22.3538 9.2941 23.0476 7.14285 23.0464H5V28.3212C5 28.8458 5.2084 29.3489 5.57935 29.7198C5.9503 30.0908 6.45341 30.2992 6.97802 30.2992H18.8461C19.3707 30.2992 19.8738 30.0908 20.2448 29.7198C20.6157 29.3489 20.8241 28.8458 20.8241 28.3212V17.7716C20.1597 17.7724 19.4971 17.8398 18.8461 17.9727Z" fill="#AE2E34"/>
<path d="M20.8243 17.7716V21.398H19.4232C19.2304 21.3986 19.0377 21.3876 18.8463 21.365V17.9727C19.4972 17.8398 20.1599 17.7724 20.8243 17.7716Z" fill="#E53B44"/>
<path d="M19.423 21.398C19.2302 21.3987 19.0376 21.3877 18.8461 21.3651C18.1647 21.2856 17.5064 21.0694 16.9105 20.7295C16.3145 20.3897 15.7933 19.9331 15.378 19.387C15.2587 19.2367 15.1486 19.0793 15.0483 18.9156C14.5951 18.1642 13.9553 17.5426 13.1912 17.1111C12.427 16.6796 11.5644 16.4529 10.6868 16.4529H5V28.3212C5 28.8458 5.2084 29.3489 5.57935 29.7199C5.9503 30.0908 6.45341 30.2992 6.97802 30.2992H18.8461C19.3707 30.2992 19.8738 30.0908 20.2448 29.7199C20.6157 29.3489 20.8241 28.8458 20.8241 28.3212V21.398H19.423Z" fill="#E53B44"/>
<path d="M6.97802 25.354H5V26.0133H6.97802C7.06545 26.0133 7.1493 25.9786 7.21113 25.9168C7.27295 25.855 7.30769 25.7711 7.30769 25.6837C7.30769 25.5962 7.27295 25.5124 7.21113 25.4506C7.1493 25.3887 7.06545 25.354 6.97802 25.354ZM6.97802 24.0353H5V24.6946H6.97802C7.06545 24.6946 7.1493 24.6599 7.21113 24.5981C7.27295 24.5363 7.30769 24.4524 7.30769 24.365C7.30769 24.2775 7.27295 24.1937 7.21113 24.1319C7.1493 24.07 7.06545 24.0353 6.97802 24.0353ZM6.97802 22.7166H5V23.376H6.97802C7.06545 23.376 7.1493 23.3412 7.21113 23.2794C7.27295 23.2176 7.30769 23.1337 7.30769 23.0463C7.30769 22.9588 7.27295 22.875 7.21113 22.8132C7.1493 22.7513 7.06545 22.7166 6.97802 22.7166ZM6.97802 21.3979H5V22.0573H6.97802C7.06545 22.0573 7.1493 22.0225 7.21113 21.9607C7.27295 21.8989 7.30769 21.815 7.30769 21.7276C7.30769 21.6402 7.27295 21.5563 7.21113 21.4945C7.1493 21.4326 7.06545 21.3979 6.97802 21.3979ZM6.97802 20.0792H5V20.7386H6.97802C7.06545 20.7386 7.1493 20.7038 7.21113 20.642C7.27295 20.5802 7.30769 20.4963 7.30769 20.4089C7.30769 20.3215 7.27295 20.2376 7.21113 20.1758C7.1493 20.114 7.06545 20.0792 6.97802 20.0792ZM6.97802 18.7605H5V19.4199H6.97802C7.06545 19.4199 7.1493 19.3851 7.21113 19.3233C7.27295 19.2615 7.30769 19.1776 7.30769 19.0902C7.30769 19.0028 7.27295 18.9189 7.21113 18.8571C7.1493 18.7953 7.06545 18.7605 6.97802 18.7605ZM7.30769 17.7715C7.30769 17.6841 7.27295 17.6002 7.21113 17.5384C7.1493 17.4766 7.06545 17.4418 6.97802 17.4418H5V18.1012H6.97802C7.06545 18.1012 7.1493 18.0664 7.21113 18.0046C7.27295 17.9428 7.30769 17.8589 7.30769 17.7715Z" fill="white"/>
<path d="M20.8241 21.398V28.3211C20.8241 28.8457 20.6157 29.3488 20.2448 29.7198C19.8738 30.0907 19.3707 30.2991 18.8461 30.2991H16.8681C17.3927 30.2991 17.8958 30.0907 18.2668 29.7198C18.6377 29.3488 18.8461 28.8457 18.8461 28.3211V21.365C19.0376 21.3876 19.2302 21.3986 19.423 21.398H20.8241Z" fill="#AE2E34"/>
<path d="M18.8462 25.0246H17.8572V24.0355C17.8572 23.9481 17.8225 23.8643 17.7607 23.8024C17.6988 23.7406 17.615 23.7059 17.5275 23.7059H16.2089C16.1214 23.7059 16.0376 23.7406 15.9758 23.8024C15.9139 23.8643 15.8792 23.9481 15.8792 24.0355V25.0246H14.8902C14.8028 25.0246 14.7189 25.0593 14.6571 25.1211C14.5952 25.1829 14.5605 25.2668 14.5605 25.3542V26.6729C14.5605 26.7604 14.5952 26.8442 14.6571 26.906C14.7189 26.9679 14.8028 27.0026 14.8902 27.0026H15.8792V27.9916C15.8792 28.0791 15.9139 28.1629 15.9758 28.2247C16.0376 28.2866 16.1214 28.3213 16.2089 28.3213H17.5275C17.615 28.3213 17.6988 28.2866 17.7607 28.2247C17.8225 28.1629 17.8572 28.0791 17.8572 27.9916V27.0026H18.8462C18.9337 27.0026 19.0175 26.9679 19.0793 26.906C19.1412 26.8442 19.1759 26.7604 19.1759 26.6729V25.3542C19.1759 25.2668 19.1412 25.1829 19.0793 25.1211C19.0175 25.0593 18.9337 25.0246 18.8462 25.0246Z" fill="white"/>
<path d="M23.1318 37.2222H15.5494C14.7625 37.2222 14.0078 36.9096 13.4514 36.3532C12.895 35.7967 12.5824 35.0421 12.5824 34.2551V32.2771C12.5824 32.1897 12.6171 32.1058 12.679 32.044C12.7408 31.9822 12.8246 31.9474 12.9121 31.9474C12.9995 31.9474 13.0834 31.9822 13.1452 32.044C13.207 32.1058 13.2417 32.1897 13.2417 32.2771V34.2551C13.2417 34.8672 13.4849 35.4542 13.9176 35.8869C14.3504 36.3197 14.9374 36.5629 15.5494 36.5629H23.1318C23.7439 36.5629 24.3308 36.3197 24.7636 35.8869C25.1964 35.4542 25.4395 34.8672 25.4395 34.2551V17.7715C25.4395 16.8097 25.8216 15.8873 26.5016 15.2072C27.1817 14.5271 28.1041 14.1451 29.0659 14.1451C30.0276 14.1451 30.95 14.5271 31.6301 15.2072C32.3102 15.8873 32.6922 16.8097 32.6922 17.7715V18.7605C32.6922 18.8479 32.6575 18.9318 32.5957 18.9936C32.5338 19.0554 32.45 19.0902 32.3626 19.0902C32.2751 19.0902 32.1913 19.0554 32.1294 18.9936C32.0676 18.9318 32.0329 18.8479 32.0329 18.7605V17.7715C32.0329 16.9846 31.7203 16.2299 31.1639 15.6735C30.6074 15.117 29.8528 14.8044 29.0659 14.8044C28.279 14.8044 27.5243 15.117 26.9679 15.6735C26.4114 16.2299 26.0988 16.9846 26.0988 17.7715V34.2551C26.0988 35.0421 25.7862 35.7967 25.2298 36.3532C24.6734 36.9096 23.9187 37.2222 23.1318 37.2222Z" fill="#E53B44"/>
<path d="M31.3736 19.0904H33.3516V22.3871H31.3736V19.0904Z" fill="#5D8AF9"/>
<path d="M32.3626 19.0904H33.3516V22.3871H32.3626V19.0904Z" fill="#476FBF"/>
<path d="M34.6703 19.4201H30.055C29.9675 19.4201 29.8837 19.3854 29.8218 19.3235C29.76 19.2617 29.7253 19.1779 29.7253 19.0904C29.7253 19.003 29.76 18.9191 29.8218 18.8573C29.8837 18.7955 29.9675 18.7607 30.055 18.7607H34.6703C34.7578 18.7607 34.8416 18.7955 34.9034 18.8573C34.9653 18.9191 35 19.003 35 19.0904C35 19.1779 34.9653 19.2617 34.9034 19.3235C34.8416 19.3854 34.7578 19.4201 34.6703 19.4201Z" fill="#5D8AF9"/>
</g>
<defs>
<clipPath id="clip0_8_271">
<rect width="30" height="30" fill="white" transform="translate(5 5)"/>
</clipPath>
</defs>
</svg>
