<svg xmlns="http://www.w3.org/2000/svg" width="27.301" height="26.855" viewBox="0 0 27.301 26.855">
  <path id="Icon_material-call" data-name="Icon material-call" d="M9.3,11.509c1.755,3.364,7.286,8.342,10.735,10.066l-.411-2.595a1.233,1.233,0,0,1,1.243-.285,14.22,14.22,0,0,0,4.351.678,1.208,1.208,0,0,1,1.219,1.189V24.71A1.208,1.208,0,0,1,25.217,25.9,20.466,20.466,0,0,1,4.5,5.689,1.208,1.208,0,0,1,5.719,4.5H9.984A1.208,1.208,0,0,1,11.2,5.689,13.2,13.2,0,0,0,11.9,9.933a1.173,1.173,0,0,1-.3,1.213Z" transform="translate(0.751 -4.004) rotate(9)" fill="none" stroke="#fff" stroke-width="2"/>
</svg>
