<svg xmlns="http://www.w3.org/2000/svg" width="20.472" height="20.509" viewBox="0 0 20.472 20.509">
  <path id="Icon_feather-phone" data-name="Icon feather-phone" d="M21.638,16.856v2.786A1.857,1.857,0,0,1,19.614,21.5,18.379,18.379,0,0,1,11.6,18.649a18.11,18.11,0,0,1-5.572-5.572A18.379,18.379,0,0,1,3.175,5.025,1.857,1.857,0,0,1,5.023,3H7.81A1.857,1.857,0,0,1,9.667,4.6a11.924,11.924,0,0,0,.65,2.61A1.857,1.857,0,0,1,9.9,9.167L8.72,10.346a14.859,14.859,0,0,0,5.572,5.572l1.179-1.179a1.857,1.857,0,0,1,1.96-.418,11.925,11.925,0,0,0,2.61.65,1.857,1.857,0,0,1,1.6,1.885Z" transform="translate(-2.167 -2)" fill="#efefef" stroke="#272d3b" stroke-linecap="round" stroke-linejoin="round" stroke-width="2" opacity="0.58"/>
</svg>
