<svg id="Group_2987" data-name="Group 2987" xmlns="http://www.w3.org/2000/svg" width="38.631" height="38.628" viewBox="0 0 38.631 38.628">
  <path id="Path_11417" data-name="Path 11417" d="M52.916,50.518a4.084,4.084,0,0,0-1.773.414L45.211,45H40.5v2.759h3.568l5.125,5.125a4.092,4.092,0,0,0-.415,1.773,4.139,4.139,0,1,0,4.139-4.139Zm0,5.518a1.38,1.38,0,1,1,1.38-1.38A1.38,1.38,0,0,1,52.916,56.037Z" transform="translate(-18.427 -20.168)" fill="#fff"/>
  <path id="Path_11418" data-name="Path 11418" d="M52.916,29.25a4.132,4.132,0,0,0-3.885,2.759H40.5v2.759h8.531a4.132,4.132,0,1,0,3.885-5.518Zm0,5.518a1.38,1.38,0,1,1,1.38-1.38A1.38,1.38,0,0,1,52.916,34.768Z" transform="translate(-18.427 -14.075)" fill="#fff"/>
  <path id="Path_11419" data-name="Path 11419" d="M52.916,4.5a4.143,4.143,0,0,0-4.139,4.139,4.092,4.092,0,0,0,.48,1.894l-5.176,5H40.5V18.3h4.7l6.07-5.866a4.137,4.137,0,1,0,1.65-7.93Zm0,5.518a1.38,1.38,0,1,1,1.38-1.38A1.38,1.38,0,0,1,52.916,10.018Z" transform="translate(-18.427 -4.5)" fill="#fff"/>
  <path id="Path_11420" data-name="Path 11420" d="M26.573,11.759h2.759V9H26.573a5.485,5.485,0,0,0-4.139,1.907A5.485,5.485,0,0,0,18.3,9h-1.38A12.43,12.43,0,0,0,4.5,21.416v8.277A12.43,12.43,0,0,0,16.916,42.11H18.3A5.485,5.485,0,0,0,22.435,40.2a5.485,5.485,0,0,0,4.139,1.907h2.759V39.351H26.573a2.762,2.762,0,0,1-2.759-2.759V14.518A2.762,2.762,0,0,1,26.573,11.759ZM18.3,39.351h-1.38A9.664,9.664,0,0,1,7.37,31.073h2.649V28.314H7.259V22.8H11.4a4.143,4.143,0,0,0,4.139-4.139V15.9H12.777v2.759a1.38,1.38,0,0,1-1.38,1.38H7.37a9.664,9.664,0,0,1,9.547-8.277H18.3a2.762,2.762,0,0,1,2.759,2.759v5.518H18.3V22.8h2.759v5.518H18.3a4.143,4.143,0,0,0-4.139,4.139v2.759h2.759V32.453a1.38,1.38,0,0,1,1.38-1.38h2.759v5.518A2.762,2.762,0,0,1,18.3,39.351Z" transform="translate(-4.5 -6.241)" fill="#fff"/>
</svg>
