<svg xmlns="http://www.w3.org/2000/svg" width="47.885" height="47.909" viewBox="0 0 47.885 47.909">
  <g id="service" transform="translate(1 1)">
    <path id="Path_11424" data-name="Path 11424" d="M38.438,17.735a15.007,15.007,0,0,0-5.3-2.149l.024-4.23H27.3l.011,4.263a15.119,15.119,0,0,0-2.749.846,14.915,14.915,0,0,0-2.523,1.36L18.97,14.8l-4.1,4.127,3.06,3.023a14.8,14.8,0,0,0-2.16,5.271l-4.344.008v5.806l4.38-.016a14.8,14.8,0,0,0,.849,2.73,14.435,14.435,0,0,0,1.369,2.511" transform="translate(-11.423 -11.356)" fill="none" stroke="#fff" stroke-linecap="round" stroke-width="2"/>
    <g id="Group_3000" data-name="Group 3000" transform="translate(8.224 8.32)">
      <path id="Path_11425" data-name="Path 11425" d="M35.881,30.383V25.906a14.656,14.656,0,0,0,2.744-.84A15.161,15.161,0,0,0,41.156,23.7l3.128,3.084,4.105-4.121-3.13-3.084a14.838,14.838,0,0,0,2.162-5.274l4.248-.026v-5.8l-4.286.026a14.515,14.515,0,0,0-2.216-5.242L48.129.3,43.982-3.789,41.024-.821a15.008,15.008,0,0,0-5.3-2.149l.024-4.23h-5.87l.011,4.263a15.116,15.116,0,0,0-2.749.846A14.917,14.917,0,0,0,24.62-.731L21.556-3.758,17.453.369l3.06,3.023a14.8,14.8,0,0,0-2.16,5.271l-4.344.008v5.806l4.38-.016a14.794,14.794,0,0,0,.849,2.73A14.433,14.433,0,0,0,20.607,19.7l-3.141,3.129,4.148,4.077,3.133-3.119a14.865,14.865,0,0,0,5.3,2.152l0,4.44c1.943.015,5.832,0,5.832,0Z" transform="translate(-14.009 7.2)" fill="none" stroke="#fff" stroke-linecap="round" stroke-width="2"/>
      <ellipse id="Ellipse_1163" data-name="Ellipse 1163" cx="5.06" cy="5.06" rx="5.06" ry="5.06" transform="translate(13.794 13.5)" fill="none" stroke="#fff" stroke-linecap="square" stroke-dashoffset="700" stroke-width="2"/>
    </g>
  </g>
</svg>
