<svg xmlns="http://www.w3.org/2000/svg" width="25.563" height="25.563" viewBox="0 0 25.563 25.563">
  <g id="Icon_feather-settings" data-name="Icon feather-settings" transform="translate(-0.5 -0.5)">
    <path id="Path_11486" data-name="Path 11486" d="M19.926,16.713A3.213,3.213,0,1,1,16.713,13.5,3.213,3.213,0,0,1,19.926,16.713Z" transform="translate(-3.431 -3.431)" fill="none" stroke="#fff" stroke-linecap="round" stroke-linejoin="round" stroke-width="2"/>
    <path id="Path_11487" data-name="Path 11487" d="M21.208,16.495a1.767,1.767,0,0,0,.353,1.949l.064.064a2.143,2.143,0,1,1-3.031,3.031l-.064-.064a1.782,1.782,0,0,0-3.02,1.264v.182a2.142,2.142,0,1,1-4.284,0v-.1a1.767,1.767,0,0,0-1.157-1.617,1.767,1.767,0,0,0-1.949.353l-.064.064a2.143,2.143,0,1,1-3.031-3.031l.064-.064a1.782,1.782,0,0,0-1.264-3.02H3.642a2.142,2.142,0,0,1,0-4.284h.1a1.767,1.767,0,0,0,1.617-1.157A1.767,1.767,0,0,0,5,8.119l-.064-.064A2.143,2.143,0,1,1,7.969,5.024l.064.064a1.767,1.767,0,0,0,1.949.353h.086A1.767,1.767,0,0,0,11.14,3.824V3.642a2.142,2.142,0,1,1,4.284,0v.1A1.782,1.782,0,0,0,18.444,5l.064-.064A2.143,2.143,0,1,1,21.54,7.969l-.064.064a1.767,1.767,0,0,0-.353,1.949v.086a1.767,1.767,0,0,0,1.617,1.071h.182a2.142,2.142,0,1,1,0,4.284h-.1a1.767,1.767,0,0,0-1.617,1.071Z" fill="none" stroke="#fff" stroke-linecap="round" stroke-linejoin="round" stroke-width="2"/>
  </g>
</svg>
