<svg xmlns="http://www.w3.org/2000/svg" width="22.917" height="30.556" viewBox="0 0 22.917 30.556">
  <g id="Group_3160" data-name="Group 3160" transform="translate(-33 -300)">
    <g id="Group_3159" data-name="Group 3159">
      <g id="Group_3158" data-name="Group 3158">
        <g id="Group_3157" data-name="Group 3157">
          <g id="Group_3156" data-name="Group 3156">
            <g id="Group_3155" data-name="Group 3155">
              <g id="Group_3154" data-name="Group 3154">
                <g id="Group_3153" data-name="Group 3153">
                  <g id="Group_3152" data-name="Group 3152">
                    <g id="Group_3151" data-name="Group 3151">
                      <g id="Group_3150" data-name="Group 3150">
                        <path id="Icon_awesome-file" data-name="Icon awesome-file" d="M13.368,8.116V0H1.432A1.429,1.429,0,0,0,0,1.432V29.124a1.429,1.429,0,0,0,1.432,1.432H21.485a1.429,1.429,0,0,0,1.432-1.432V9.549H14.8A1.437,1.437,0,0,1,13.368,8.116Zm9.549-.841v.364H15.278V0h.364a1.431,1.431,0,0,1,1.015.418L22.5,6.266A1.428,1.428,0,0,1,22.917,7.275Z" transform="translate(33 300)" fill="#272d3b"/>
                        <path id="Icon_awesome-check" data-name="Icon awesome-check" d="M4.2,13.614.181,9.6a.618.618,0,0,1,0-.874l.874-.874a.618.618,0,0,1,.874,0l2.706,2.706,5.8-5.8a.618.618,0,0,1,.874,0l.874.874a.618.618,0,0,1,0,.874L5.072,13.614A.618.618,0,0,1,4.2,13.614Z" transform="translate(38.278 308.423)" fill="#fff"/>
                      </g>
                    </g>
                  </g>
                </g>
              </g>
            </g>
          </g>
        </g>
      </g>
    </g>
  </g>
</svg>
